<svg width="42" height="22" viewBox="0 0 42 22" fill="none" xmlns="http://www.w3.org/2000/svg">
<path fill-rule="evenodd" clip-rule="evenodd" d="M0 21.1014V0.588732C0 0.444131 0.0624065 0.30986 0.187221 0.185915C0.312036 0.0619712 0.44725 0 0.592868 0H4.05646C4.22288 0 4.3633 0.0619712 4.47771 0.185915C4.59213 0.30986 4.64933 0.444131 4.64933 0.588732V14.0056L8.42496 9.66761C8.67459 9.41972 8.93462 9.29577 9.20505 9.29577H12.6999C12.9703 9.29577 13.1575 9.39906 13.2615 9.60563C13.3655 9.81221 13.3343 10.0291 13.1679 10.2563L9.04903 14.9972L14.0416 20.7606C14.208 20.9671 14.2392 21.1737 14.1352 21.3803C14.0312 21.5869 13.844 21.6901 13.5736 21.6901H9.36107C9.17385 21.6901 9.01783 21.6075 8.89302 21.4423L4.64933 16.0507V21.1014C4.64933 21.246 4.59213 21.3803 4.47771 21.5042C4.3633 21.6282 4.22288 21.6901 4.05646 21.6901H0.592868C0.44725 21.6901 0.312036 21.6282 0.187221 21.5042C0.0624065 21.3803 0 21.246 0 21.1014ZM19.9703 4.8338C19.4918 5.30892 18.9094 5.54648 18.2229 5.54648C17.5364 5.54648 16.9539 5.30892 16.4755 4.8338C15.997 4.35868 15.7578 3.78029 15.7578 3.09859C15.7578 2.4169 15.997 1.83334 16.4755 1.34789C16.9539 0.862439 17.5364 0.619718 18.2229 0.619718C18.9094 0.619718 19.497 0.862439 19.9859 1.34789C20.4747 1.83334 20.7192 2.4169 20.7192 3.09859C20.7192 3.78029 20.4695 4.35868 19.9703 4.8338ZM15.945 21.1014V9.88451C15.945 9.71925 16.0022 9.57981 16.1166 9.4662C16.2311 9.35258 16.3715 9.29577 16.5379 9.29577H19.9703C20.1367 9.29577 20.2771 9.35258 20.3915 9.4662C20.5059 9.57981 20.5632 9.71925 20.5632 9.88451V21.1014C20.5632 21.246 20.5007 21.3803 20.3759 21.5042C20.2511 21.6282 20.1159 21.6901 19.9703 21.6901H16.5379C16.3923 21.6901 16.2571 21.6282 16.1322 21.5042C16.0074 21.3803 15.945 21.246 15.945 21.1014ZM28.2392 21.6901L22.373 10.1324C22.2689 9.92582 22.2741 9.73474 22.3886 9.55915C22.503 9.38357 22.6746 9.29577 22.9034 9.29577H26.3982C26.6686 9.29577 26.8559 9.40939 26.9599 9.63662L28.8009 13.8507H28.8945L30.8603 9.63662C30.9435 9.47136 31.0371 9.37324 31.1412 9.34225C31.2452 9.31127 31.4324 9.29577 31.7028 9.29577H34.8544C35.0832 9.29577 35.2548 9.38357 35.3692 9.55915C35.4837 9.73474 35.4889 9.92582 35.3848 10.1324L29.4562 21.6901C29.3314 21.8967 29.1545 22 28.9257 22H28.7697C28.5409 22 28.364 21.8967 28.2392 21.6901ZM41.2511 4.8338C40.7727 5.30892 40.1902 5.54648 39.5037 5.54648C38.8172 5.54648 38.2348 5.30892 37.7563 4.8338C37.2779 4.35868 37.0386 3.78029 37.0386 3.09859C37.0386 2.4169 37.2779 1.83334 37.7563 1.34789C38.2348 0.862439 38.8172 0.619718 39.5037 0.619718C40.1902 0.619718 40.7779 0.862439 41.2667 1.34789C41.7556 1.83334 42 2.4169 42 3.09859C42 3.78029 41.7504 4.35868 41.2511 4.8338ZM37.2259 21.1014V9.88451C37.2259 9.71925 37.2831 9.57981 37.3975 9.4662C37.5119 9.35258 37.6523 9.29577 37.8187 9.29577H41.2511C41.4175 9.29577 41.5579 9.35258 41.6724 9.4662C41.7868 9.57981 41.844 9.71925 41.844 9.88451V21.1014C41.844 21.246 41.7816 21.3803 41.6568 21.5042C41.5319 21.6282 41.3967 21.6901 41.2511 21.6901H37.8187C37.6731 21.6901 37.5379 21.6282 37.4131 21.5042C37.2883 21.3803 37.2259 21.246 37.2259 21.1014Z" fill="white"/>
</svg>
